<?xml version="1.0" encoding="UTF-8" standalone="no"?>
<!DOCTYPE svg PUBLIC "-//W3C//DTD SVG 1.1//EN" "http://www.w3.org/Graphics/SVG/1.1/DTD/svg11.dtd">
<svg width="100%" height="100%" viewBox="0 0 851 851" version="1.1" xmlns="http://www.w3.org/2000/svg" xmlns:xlink="http://www.w3.org/1999/xlink" xml:space="preserve" xmlns:serif="http://www.serif.com/" style="fill-rule:evenodd;clip-rule:evenodd;stroke-linejoin:round;stroke-miterlimit:2;">
    <g transform="matrix(2.82538,2.78478e-18,0,2.9321,-4321.71,-4092.03)">
        <g id="Layer-1" serif:id="Layer 1">
            <g id="g4705">
                <path id="path3950" d="M1679.52,1485.78C1679.52,1507.36 1666.15,1512 1648.37,1517.63C1629.68,1523.54 1604.49,1502.76 1604.49,1481.18C1604.49,1459.6 1627,1430.29 1645.69,1430.29C1664.37,1430.29 1679.52,1464.2 1679.52,1485.78Z" style="fill:rgb(0,120,164);fill-rule:nonzero;"/>
                <path id="path3950-8" d="M1612.53,1551.92C1612.53,1573.5 1599.16,1578.15 1581.38,1583.77C1562.69,1589.68 1537.5,1568.9 1537.5,1547.33C1537.5,1525.75 1560.02,1496.43 1578.7,1496.43C1597.38,1496.43 1612.53,1530.34 1612.53,1551.92Z" style="fill:rgb(0,120,164);fill-rule:nonzero;"/>
                <path id="path3950-8-8" d="M1763.25,1478.37C1763.25,1499.95 1749.88,1504.6 1732.1,1510.22C1713.42,1516.13 1688.22,1495.36 1688.22,1473.78C1688.22,1452.2 1710.74,1422.88 1729.42,1422.88C1748.1,1422.88 1763.25,1456.79 1763.25,1478.37Z" style="fill:rgb(0,120,164);fill-rule:nonzero;"/>
                <path id="path3950-8-8-2" d="M1821.53,1547.98C1821.53,1569.56 1808.16,1574.21 1790.38,1579.83C1771.7,1585.74 1746.5,1564.97 1746.5,1543.39C1746.5,1521.81 1769.02,1492.49 1787.7,1492.49C1806.38,1492.49 1821.53,1526.4 1821.53,1547.98Z" style="fill:rgb(0,120,164);fill-rule:nonzero;"/>
                <path id="path3806" d="M1675.69,1527.85C1646.1,1528.16 1640.45,1532.04 1617.73,1578.09C1589.76,1634.76 1644.94,1654.56 1671.99,1654.8L1689.23,1654.84C1716.25,1654.62 1774.72,1634.79 1746.73,1578.09C1724.01,1532.04 1717.71,1528.16 1688.12,1527.85C1683.48,1527.73 1679.71,1527.77 1675.69,1527.85L1675.69,1527.85Z" style="fill:rgb(0,120,164);fill-rule:nonzero;"/>
            </g>
        </g>
    </g>
</svg>
