<?xml version="1.0" standalone="no"?>
<!DOCTYPE svg PUBLIC "-//W3C//DTD SVG 20010904//EN"
 "http://www.w3.org/TR/2001/REC-SVG-20010904/DTD/svg10.dtd">
<svg version="1.0" xmlns="http://www.w3.org/2000/svg"
 width="700.000000pt" height="700.000000pt" viewBox="0 0 700.000000 700.000000"
 preserveAspectRatio="xMidYMid meet">
<metadata>
Created by potrace 1.14, written by Peter Selinger 2001-2017
</metadata>
<g transform="translate(0.000000,700.000000) scale(0.100000,-0.100000)"
fill="#000000" stroke="none">
<path d="M4510 6320 c-57 -18 -110 -41 -145 -63 -244 -150 -466 -425 -586
-724 -65 -163 -91 -285 -90 -428 1 -305 218 -636 521 -797 75 -40 112 -55 221
-88 15 -4 71 -6 125 -5 87 2 114 8 229 47 176 61 247 91 330 140 229 135 319
319 311 633 -2 77 -7 152 -10 168 -3 15 -11 55 -17 90 -42 244 -149 511 -287
717 -82 123 -151 196 -242 255 -114 75 -236 93 -360 55z"/>
<path d="M2644 6159 c-71 -9 -118 -25 -203 -71 -118 -62 -204 -135 -341 -288
-88 -99 -280 -427 -280 -480 0 -9 -4 -20 -8 -25 -10 -12 -50 -146 -57 -195 -3
-19 -8 -84 -10 -145 -3 -90 1 -126 20 -201 100 -394 495 -728 851 -719 64 2
107 11 210 44 71 23 138 46 149 51 244 106 341 177 418 305 141 236 114 659
-69 1103 -121 292 -299 514 -477 592 -57 25 -140 37 -203 29z"/>
<path d="M5888 4649 c-236 -55 -536 -345 -703 -679 -41 -81 -100 -238 -115
-303 -5 -23 -12 -55 -16 -72 -14 -66 -11 -259 6 -325 73 -281 271 -526 530
-656 180 -91 332 -102 520 -41 411 136 570 258 639 492 58 197 43 449 -45 751
-119 414 -369 761 -595 828 -57 17 -161 19 -221 5z"/>
<path d="M1037 4554 c-331 -76 -712 -534 -823 -989 -24 -94 -28 -133 -27 -235
4 -496 552 -985 983 -876 88 22 288 95 371 136 189 92 290 198 343 358 35 105
44 173 41 310 -6 261 -93 579 -227 832 -144 271 -306 428 -483 469 -60 13
-101 12 -178 -5z"/>
<path d="M3168 3805 c-2 -1 -32 -6 -68 -9 -147 -15 -287 -65 -385 -137 -172
-126 -312 -337 -571 -864 -133 -271 -186 -400 -223 -536 -159 -584 66 -1059
629 -1326 198 -94 417 -155 635 -178 73 -8 567 -8 655 0 206 18 481 95 679
191 468 227 707 573 696 1008 -2 61 -6 127 -10 146 -37 199 -76 317 -177 534
-118 254 -267 539 -342 656 -95 148 -133 196 -216 280 -77 77 -111 103 -180
138 -88 44 -194 75 -296 88 -56 7 -819 15 -826 9z"/>
</g>
</svg>
